<svg xmlns="http://www.w3.org/2000/svg" xmlns:svgjs="http://svgjs.com/svgjs" xmlns:xlink="http://www.w3.org/1999/xlink" width="288" height="288"><svg xmlns="http://www.w3.org/2000/svg" width="288" height="288" viewBox="0 0 1600 1200"><g fill="none" fill-rule="evenodd" transform="translate(0 -1)"><rect width="200" height="200" fill="#97a4aa" class="colorFF6242 svgShape" transform="translate(0 201)"/><g fill="#000" class="color000 svgShape" transform="translate(1400 801)"><rect width="200" height="200" fill="#e5e8ea" class="colorE4E7EB svgShape"/><polygon fill="#788890" points="0 0 200 200 0 200" class="colorFFDC09 svgShape"/></g><g fill="#000" class="color000 svgShape" transform="translate(200 801)"><path fill="#788890" d="M299,26 C340.421356,26 374,59.5786438 374,101 C374,142.421356 340.421356,176 299,176 C257.578644,176 224,142.421356 224,101 C224,59.5786438 257.578644,26 299,26 Z" class="colorFFDC09 svgShape"/><polygon fill="#fff" points="0 0 199.377 0 400 200 0 200" class="colorFFF svgShape"/><polygon fill="#6d7d85" points="0 0 200 200 0 200" class="color00C9F2 svgShape" transform="matrix(-1 0 0 1 200 0)"/><path fill="#505b61" d="M99,56 L100,56 C124.852814,56 145,76.1471863 145,101 C145,125.852814 124.852814,146 100,146 L99,146 C74.1471863,146 54,125.852814 54,101 C54,76.1471863 74.1471863,56 99,56 Z" class="color26468B svgShape"/></g><g fill="#000" class="color000 svgShape" transform="translate(1000 1)"><path fill="#e5e8ea" d="M299,26 C340.421356,26 374,59.5786438 374,101 C374,142.421356 340.421356,176 299,176 C257.578644,176 224,142.421356 224,101 C224,59.5786438 257.578644,26 299,26 Z" class="colorE4E7EB svgShape"/><polygon fill="#6d7d85" points="0 0 199.377 0 400 200 0 200" class="color00C9F2 svgShape"/><polygon fill="#fff" points="0 0 200 200 0 200" class="colorFFF svgShape" transform="matrix(-1 0 0 1 200 0)"/><path fill="#505b61" d="M99,56 L100,56 C124.852814,56 145,76.1471863 145,101 C145,125.852814 124.852814,146 100,146 L99,146 C74.1471863,146 54,125.852814 54,101 C54,76.1471863 74.1471863,56 99,56 Z" class="color26468B svgShape"/></g><g fill="#000" class="color000 svgShape" transform="translate(600 801)"><rect width="200" height="400" fill="#6d7d85" class="color00C9F2 svgShape"/><rect width="100" height="100.251" x="100" y="100" fill="#6a7981" class="color3C61AF svgShape"/><rect width="100" height="100.251" y="200" fill="#505b61" class="color26468B svgShape"/></g><g fill="#000" class="color000 svgShape" transform="rotate(90 699.5 900.5)"><polygon fill="#6a7981" points="0 0 200 0 200 200 0 200" class="color3C61AF svgShape"/><rect width="100" height="100" x="100" y="100" fill="#97a4aa" class="colorFF6242 svgShape"/></g><g fill="#000" class="color000 svgShape" transform="translate(0 801)"><rect width="200" height="200" fill="#fff" class="colorFFF svgShape"/><polygon fill="#788890" points="100 33 143.067 48.675 165.982 88.366 158.024 133.5 122.915 162.959 77.085 162.959 41.976 133.5 34.018 88.366 56.933 48.675" class="colorFFDC09 svgShape"/></g><g fill="#000" class="color000 svgShape" transform="translate(1400 1001)"><rect width="200" height="200" fill="#505b61" class="color26468B svgShape"/><polygon fill="#6d7d85" points="100 33 143.067 48.675 165.982 88.366 158.024 133.5 122.915 162.959 77.085 162.959 41.976 133.5 34.018 88.366 56.933 48.675" class="color00C9F2 svgShape"/></g><g fill="#000" class="color000 svgShape" transform="translate(800 1)"><rect width="200" height="200" fill="#fff" class="colorFFF svgShape"/><polygon fill="#505b61" points="100 33 143.067 48.675 165.982 88.366 158.024 133.5 122.915 162.959 77.085 162.959 41.976 133.5 34.018 88.366 56.933 48.675" class="color26468B svgShape"/></g><g fill="#000" class="color000 svgShape" transform="rotate(-90 900.5 100.5)"><rect width="200" height="200" fill="#6a7981" class="color3C61AF svgShape"/><rect width="100" height="200" fill="#97a4aa" class="colorFF6242 svgShape"/></g><rect width="200" height="200" fill="#788890" class="colorFFDC09 svgShape" transform="translate(600 1)"/><g fill="#000" class="color000 svgShape" transform="translate(1000 801)"><rect width="200" height="200" fill="#788890" class="colorFFDC09 svgShape"/><polygon fill="#e5e8ea" points="0 0 200 200 0 200" class="colorE4E7EB svgShape" transform="matrix(-1 0 0 1 200 0)"/></g><g fill="#000" class="color000 svgShape" transform="translate(400 401)"><rect width="200" height="200" fill="#6a7981" class="color3C61AF svgShape"/><rect width="101" height="200" fill="#97a4aa" class="colorFF6242 svgShape"/></g><rect width="200" height="200" fill="#788890" class="colorFFDC09 svgShape" transform="translate(400 1001)"/><g fill="#000" class="color000 svgShape" transform="translate(1000 401)"><rect width="200" height="200" fill="#fff" class="colorFFF svgShape"/><path fill="#97a4aa" d="M50,100 C77.6142375,100 100,122.385763 100,150 C100,177.614237 77.6142375,200 50,200 C22.3857625,200 0,177.614237 0,150 C0,122.385763 22.3857625,100 50,100 Z" class="colorFF6242 svgShape"/><rect width="100" height="100" x="100" fill="#6d7d85" class="color00C9F2 svgShape"/></g><g fill="#000" class="color000 svgShape" transform="translate(800 601)"><rect width="200" height="200" fill="#fff" class="colorFFF svgShape"/><path fill="#e5e8ea" d="M100,55 C124.852814,55 145,75.1471863 145,100 C145,124.852814 124.852814,145 100,145 C75.1471863,145 55,124.852814 55,100 C55,75.1471863 75.1471863,55 100,55 Z" class="colorE4E7EB svgShape"/></g><g fill="#000" class="color000 svgShape" transform="translate(1000 601)"><rect width="200" height="200" fill="#6d7d85" class="color00C9F2 svgShape"/><rect width="140" height="140" x="30" y="30" fill="#fff" class="colorFFF svgShape"/><polygon fill="#505b61" points="0 0 100 100 0 100" class="color26468B svgShape" transform="rotate(180 50 50)"/></g><g fill="#000" class="color000 svgShape" transform="matrix(0 -1 1 0 0 601)"><rect width="200" height="200" fill="#6d7d85" class="color00C9F2 svgShape"/><rect width="140" height="140" x="30" y="30" fill="#fff" class="colorFFF svgShape"/><polygon fill="#505b61" points="0 0 100 100 0 100" class="color26468B svgShape" transform="rotate(180 50 50)"/></g><g fill="#000" class="color000 svgShape" transform="rotate(90 299.5 300.5)"><rect width="200" height="200" fill="#6d7d85" class="color00C9F2 svgShape"/><rect width="140" height="140" x="30" y="30" fill="#fff" class="colorFFF svgShape"/><polygon fill="#505b61" points="0 0 100 100 0 100" class="color26468B svgShape" transform="rotate(180 50 50)"/></g><g fill="#000" class="color000 svgShape" transform="rotate(90 399.5 1000.5)"><polygon fill="#6a7981" points="0 0 200 0 200 200 0 200" class="color3C61AF svgShape"/><polygon fill="#97a4aa" points="0 0 200 200 0 200" class="colorFF6242 svgShape" transform="rotate(180 100 100)"/><path fill="#fff" d="M102,25 C143.421356,25 177,58.5786438 177,100 C177,141.421356 143.421356,175 102,175 C60.5786438,175 27,141.421356 27,100 C27,58.5786438 60.5786438,25 102,25 Z" class="colorFFF svgShape"/></g><g fill="#000" class="color000 svgShape" transform="translate(0 601)"><polygon fill="#fff" points="0 0 200 0 200 200 0 200" class="colorFFF svgShape"/><polygon fill="#e5e8ea" points="0 0 200 200 0 200" class="colorE4E7EB svgShape" transform="matrix(-1 0 0 1 200 0)"/></g><g fill="#000" class="color000 svgShape" transform="translate(200 401)"><polygon fill="#505b61" points="0 0 200 200 0 200" class="color26468B svgShape"/><rect width="100" height="100" x="100" fill="#6d7d85" class="color00C9F2 svgShape"/></g><polygon fill="#505b61" points="0 0 200 200 0 200" class="color26468B svgShape" transform="translate(400 201)"/><polygon fill="#97a4aa" points="0 0 200 200 0 200" class="colorFF6242 svgShape" transform="translate(200 601)"/><g fill="#000" class="color000 svgShape" transform="translate(800 401)"><polygon fill="#788890" points="0 0 200 200 0 200" class="colorFFDC09 svgShape" transform="rotate(180 100 100)"/><rect width="100" height="100" y="100" fill="#6d7d85" class="color00C9F2 svgShape"/><polygon fill="#e5e8ea" points="100 0 200 100 100 100" class="colorE4E7EB svgShape" transform="rotate(180 150 50)"/></g><g fill="#000" class="color000 svgShape" transform="rotate(-90 200.5 .5)"><polygon fill="#788890" points="0 0 200 200 0 200" class="colorFFDC09 svgShape" transform="rotate(180 100 100)"/><rect width="100" height="100" y="100" fill="#e5e8ea" class="colorE4E7EB svgShape"/><polygon fill="#e5e8ea" points="100 0 200 100 100 100" class="colorE4E7EB svgShape" transform="rotate(180 150 50)"/></g><g fill="#000" class="color000 svgShape" transform="rotate(-90 1100.5 -299.5)"><polygon fill="#788890" points="0 0 200 200 0 200" class="colorFFDC09 svgShape" transform="rotate(180 100 100)"/><rect width="100" height="100" y="100" fill="#6d7d85" class="color00C9F2 svgShape"/><polygon fill="#e5e8ea" points="100 0 200 100 100 100" class="colorE4E7EB svgShape" transform="rotate(180 150 50)"/></g><g fill="#000" class="color000 svgShape" transform="translate(600 401)"><polygon fill="#e5e8ea" points="0 0 200 200 0 200" class="colorE4E7EB svgShape" transform="matrix(-1 0 0 1 200 0)"/><rect width="100" height="100" fill="#788890" class="colorFFDC09 svgShape"/></g><g fill="#000" class="color000 svgShape" transform="translate(1200 1001)"><polygon fill="#788890" points="0 0 200 200 0 200" class="colorFFDC09 svgShape" transform="matrix(-1 0 0 1 200 0)"/><rect width="100" height="100" fill="#505b61" class="color26468B svgShape"/></g><polygon fill="#6a7981" points="0 0 200 200 0 200" class="color3C61AF svgShape" transform="rotate(180 700 500.5)"/><polygon fill="#6a7981" points="0 0 200 200 0 200" class="color3C61AF svgShape" transform="rotate(180 100 100.5)"/><g fill="#000" class="color000 svgShape" transform="rotate(-180 400 400.5)"><rect width="200" height="200" fill="#6a7981" class="color3C61AF svgShape"/><g class="color000 svgShape" transform="translate(0 64)"><polygon fill="#fff" points="99.5 .673 168 136 31 136" class="colorFFF svgShape"/><polygon fill="#97a4aa" points="50 46.446 100 136 0 136" class="colorFF6242 svgShape"/><polygon fill="#97a4aa" points="150 46.446 200 136 100 136" class="colorFF6242 svgShape"/></g></g><g fill="#000" class="color000 svgShape" transform="rotate(90 -400.5 600.5)"><rect width="200" height="200" fill="#505b61" class="color26468B svgShape"/><polygon fill="#6d7d85" points="99.5 65 168 200 31 200" class="color00C9F2 svgShape"/><polygon fill="#e5e8ea" points="50 110 100 200 0 200" class="colorE4E7EB svgShape"/><polygon fill="#e5e8ea" points="149 110 199 200 99 200" class="colorE4E7EB svgShape"/></g><g fill="#000" class="color000 svgShape" transform="rotate(-90 801 -599)"><rect width="200" height="200.005" x="1" fill="#505b61" class="color26468B svgShape"/><polygon fill="#6d7d85" points="100.998 64.498 169.498 200.502 32.498 200.502" class="color00C9F2 svgShape"/><g fill="#e5e8ea" class="colorE4E7EB svgShape" transform="translate(.726 109.726)"><polygon fill="#000" points="50.274 .274 100.274 90.276 .274 90.276" class="color000 svgShape"/><polygon fill="#000" points="150.274 .274 200.274 90.276 100.274 90.276" class="color000 svgShape"/></g></g><g fill="#000" class="color000 svgShape" transform="rotate(-180 200 200.5)"><rect width="200" height="200" fill="#e5e8ea" class="colorE4E7EB svgShape"/><polygon fill="#788890" points="99.5 63.317 168 200 31 200" class="colorFFDC09 svgShape"/></g><polygon fill="#788890" points="100 0 200 200 0 200" class="colorFFDC09 svgShape" transform="translate(800 1001)"/><g fill="#000" class="color000 svgShape" transform="translate(1200 401)"><path fill="#e5e8ea" d="M100,0 C155.228475,0 200,44.771525 200,100 C200,155.228475 155.228475,200 100,200 C44.771525,200 0,155.228475 0,100 C0,44.771525 44.771525,0 100,0 Z" class="colorE4E7EB svgShape"/><path fill="#fff" d="M100,50 C127.614237,50 150,72.3857625 150,100 C150,127.614237 127.614237,150 100,150 C72.3857625,150 50,127.614237 50,100 C50,72.3857625 72.3857625,50 100,50 Z" class="colorFFF svgShape"/></g><g fill="#000" class="color000 svgShape" transform="translate(600 201)"><path fill="#97a4aa" d="M100,0 C155.228475,0 200,44.771525 200,100 C200,155.228475 155.228475,200 100,200 C44.771525,200 0,155.228475 0,100 C0,44.771525 44.771525,0 100,0 Z" class="colorFF6242 svgShape"/><path fill="#6a7981" d="M100,50 C127.614237,50 150,72.3857625 150,100 C150,127.614237 127.614237,150 100,150 C72.3857625,150 50,127.614237 50,100 C50,72.3857625 72.3857625,50 100,50 Z" class="color3C61AF svgShape"/></g><path fill="#6d7d85" d="M100,-1.8189894e-12 C155.228475,-1.8189894e-12 200,44.771525 200,100 C200,155.228475 155.228475,200 100,200 C44.771525,200 0,155.228475 0,100 C0,44.771525 44.771525,-1.8189894e-12 100,-1.8189894e-12 Z" class="color00C9F2 svgShape" transform="translate(1000 1001)"/><g fill="#000" class="color000 svgShape" transform="translate(1000 201)"><path fill="#788890" d="M100,0 C155.228475,0 200,44.771525 200,100 C200,155.228475 155.228475,200 100,200 C44.771525,200 0,155.228475 0,100 C0,44.771525 44.771525,0 100,0 Z" class="colorFFDC09 svgShape"/><rect width="100" height="100" x="100" y="100" fill="#fff" class="colorFFF svgShape"/></g><g fill="#000" class="color000 svgShape" transform="translate(200 1001)"><path fill="#e5e8ea" d="M100,0 C155.228475,0 200,44.771525 200,100 C200,155.228475 155.228475,200 100,200 C44.771525,200 0,155.228475 0,100 C0,44.771525 44.771525,0 100,0 Z" class="colorE4E7EB svgShape"/><rect width="100" height="100" x="100" y="100" fill="#6a7981" class="color3C61AF svgShape"/></g><g fill="#97a4aa" class="colorFF6242 svgShape" transform="translate(800 201)"><polygon fill="#000" points="0 0 100 100 0 100" class="color000 svgShape" transform="rotate(180 50 50)"/><polygon fill="#000" points="100 100 200 200 100 200" class="color000 svgShape"/><polygon fill="#000" points="0 100 100 200 0 200" class="color000 svgShape" transform="rotate(90 50 150)"/><polygon fill="#000" points="100 0 200 100 100 100" class="color000 svgShape" transform="rotate(-90 150 50)"/></g><g fill="#6d7d85" class="color00C9F2 svgShape" transform="translate(1400 401)"><polygon fill="#000" points="0 0 100 100 0 100" class="color000 svgShape" transform="rotate(180 50 50)"/><polygon fill="#000" points="100 100 200 200 100 200" class="color000 svgShape"/><polygon fill="#000" points="0 100 100 200 0 200" class="color000 svgShape" transform="rotate(90 50 150)"/><polygon fill="#000" points="100 0 200 100 100 100" class="color000 svgShape" transform="rotate(-90 150 50)"/></g><g fill="#788890" class="colorFFDC09 svgShape" transform="translate(400 601)"><polygon fill="#000" points="0 0 100 100 0 100" class="color000 svgShape" transform="rotate(180 50 50)"/><polygon fill="#000" points="0 0 100 100 0 100" class="color000 svgShape" transform="rotate(90 50 50)"/><polygon fill="#000" points="100 100 200 200 100 200" class="color000 svgShape" transform="rotate(90 150 150)"/><polygon fill="#000" points="100 100 200 200 100 200" class="color000 svgShape" transform="rotate(180 150 150)"/></g><g fill="#000" class="color000 svgShape" transform="translate(1200 201)"><polygon fill="#788890" points="0 0 100 100 0 100" class="colorFFDC09 svgShape" transform="rotate(180 50 50)"/><polygon fill="#788890" points="0 0 100 100 0 100" class="colorFFDC09 svgShape" transform="rotate(90 50 50)"/><polygon fill="#6d7d85" points="100 100 200 200 100 200" class="color00C9F2 svgShape" transform="rotate(90 150 150)"/><polygon fill="#6d7d85" points="100 100 200 200 100 200" class="color00C9F2 svgShape" transform="rotate(180 150 150)"/></g></g></svg></svg>